<svg width="65" height="55" viewBox="0 0 65 55" fill="none" xmlns="http://www.w3.org/2000/svg">
<path fill-rule="evenodd" clip-rule="evenodd" d="M58.0248 14.2996C58.0488 14.8899 58.0568 15.4799 58.0568 16.0701C58.0568 33.9651 44.8469 54.6237 20.6907 54.6237C13.2703 54.6237 6.37044 52.37 0.556931 48.5335C1.58457 48.6408 2.62824 48.7214 3.68791 48.7214C9.84041 48.7214 15.5071 46.5478 20.002 42.8991C14.2553 42.8186 9.40268 38.8748 7.7291 33.509C8.53253 33.6699 9.35992 33.7507 10.2061 33.7507C11.3992 33.7507 12.5576 33.5899 13.668 33.2679C7.65429 32.0338 3.12471 26.5608 3.12471 19.9877C3.12471 19.9072 3.12471 19.8802 3.12471 19.8266C4.89706 20.8192 6.92562 21.436 9.07966 21.5165C5.55098 19.075 3.23142 14.9167 3.23142 10.2216C3.23142 7.75333 3.87737 5.4191 5.01445 3.40693C11.4899 11.6166 21.1712 17.0093 32.0855 17.5727C31.8613 16.58 31.7465 15.534 31.7465 14.4876C31.7465 7.00235 37.6267 0.938869 44.8816 0.938869C48.6585 0.938869 52.0697 2.57567 54.464 5.20491C57.4615 4.61468 60.2696 3.48794 62.8106 1.93186C61.8257 5.09768 59.7464 7.75319 57.0291 9.41659C59.6876 9.09464 62.2234 8.37081 64.575 7.29765C62.8107 10.0074 60.5899 12.3948 58.0248 14.2996Z" fill="#1EA1F2"/>
</svg>
